<svg xmlns="http://www.w3.org/2000/svg" viewBox="0 0 28 16.3"><defs><style>.cls-1{fill:#ffffff;}</style></defs><g id="Layer_2" data-name="Layer 2"><g id="Layer_1-2" data-name="Layer 1"><path class="cls-1" d="M5.72,7.19a.18.18,0,0,0,0,.31.18.18,0,0,1,.08,0,11.83,11.83,0,0,0,2.45.77c.76.16,1.58.28,2.48.38A.32.32,0,0,0,11,8.61l2.76-2.74a.31.31,0,0,1,.42,0L17,8.63a.33.33,0,0,0,.24.08,25.69,25.69,0,0,0,2.63-.4c.45-.1.89-.22,1.29-.34a6.61,6.61,0,0,0,1.1-.45.19.19,0,0,0,.05-.3L19.76,4.71l-.06-.06h0L18.23,3.21l-.29-.28L16.75,1.74h0L15.7.69a2.41,2.41,0,0,0-3.38,0L11.26,1.74,10.06,2.9l-.27.26L8.3,4.65Z"/><path class="cls-1" d="M27.27,12.21l-.86-.86-.65-.63a.28.28,0,0,1,0-.39c.16-.21.32-.44.47-.68a4.6,4.6,0,0,0,.47-1.09,4.22,4.22,0,0,0,.16-1.22,3.68,3.68,0,0,0-.25-1.21,3.62,3.62,0,0,0-.64-1A4.71,4.71,0,0,0,24.24,4a9.23,9.23,0,0,0-1.76-.52c-.59-.12-1.17-.2-1.74-.26-.37,0-.74-.07-1.11-.09a.29.29,0,0,0-.31.28.25.25,0,0,0,.16.16c.37.08.75.18,1.11.29s.54.17.8.27.5.21.75.32a7.38,7.38,0,0,1,1.37.81,2.71,2.71,0,0,1,.86,1,1.26,1.26,0,0,1,0,1,2.06,2.06,0,0,1-.57.79,4.47,4.47,0,0,1-.47.36h0c-.18.11-.35.21-.55.31a8.89,8.89,0,0,1-1.29.51c-.46.15-.93.27-1.41.38-.64.15-1.3.24-2,.33l-1,.11c-1,.1-2,.14-3.07.14S12,10.1,11,10c-.38,0-.77-.07-1.15-.12C9.24,9.79,8.63,9.69,8,9.57A12.38,12.38,0,0,1,5.32,8.7a5.44,5.44,0,0,1-.67-.37,3.48,3.48,0,0,1-.39-.28,2.09,2.09,0,0,1-.62-.77,2,2,0,0,1-.08-.22.85.85,0,0,1,0-.23,1,1,0,0,1,.06-.48,2.44,2.44,0,0,1,.77-1,6,6,0,0,1,1.31-.83,10.51,10.51,0,0,1,1.54-.61c.43-.14.86-.26,1.31-.36a.21.21,0,0,0,.17-.2c0-.13-.11-.23-.24-.23l-1.39.12a13.73,13.73,0,0,0-1.74.29,8.15,8.15,0,0,0-1.76.56,4.92,4.92,0,0,0-.88.5,4.37,4.37,0,0,0-.8.76A3.26,3.26,0,0,0,1.32,6.4a3.86,3.86,0,0,0-.16,1.22,4,4,0,0,0,.23,1.2,5.22,5.22,0,0,0,.52,1.06c.12.17.23.33.35.48a.3.3,0,0,1,0,.39l-.65.61-.87.86a2.39,2.39,0,0,0-.09,3.32,2.42,2.42,0,0,0,3.44.06l1.41-1.4.74-.72a.29.29,0,0,1,.33-.06,2.07,2.07,0,0,0,.2.08,17,17,0,0,0,3.64,1.05,20.22,20.22,0,0,0,3.72.3,20.37,20.37,0,0,0,3.72-.35,18.23,18.23,0,0,0,3.63-1.09.31.31,0,0,1,.34.06l.73.72L24,15.6a2.4,2.4,0,0,0,3.4,0A2.43,2.43,0,0,0,27.27,12.21Z"/></g></g></svg>